<svg width="70" height="70" viewBox="0 0 70 70" fill="none" xmlns="http://www.w3.org/2000/svg">
<path d="M61.25 39.3464C60.646 39.3464 60.1562 39.8362 60.1562 40.4402V48.1041H58.4161C57.9872 44.3105 54.5643 41.583 50.7709 42.0118C47.5681 42.3738 45.0408 44.9013 44.6786 48.1041H21.875V16.3853H60.1562V19.8252C60.1562 20.4292 60.646 20.9189 61.25 20.9189C61.854 20.9189 62.3438 20.4292 62.3438 19.8252V15.2916C62.3438 14.6876 61.854 14.1978 61.25 14.1978H20.7812C20.1772 14.1978 19.6875 14.6876 19.6875 15.2916V16.3853H7.16187C4.41615 16.3889 2.19105 18.6138 2.1875 21.3597V22.9478C2.1875 23.5519 2.67723 24.0416 3.28125 24.0416H4.55328L3.71875 34.0658C1.53467 34.6343 0.00765625 36.6028 0 38.8597V48.1041C0 48.7081 0.489727 49.1978 1.09375 49.1978H3.30859C3.60842 53.1091 7.02229 56.0368 10.9335 55.737C14.4281 55.4691 17.2047 52.6924 17.4727 49.1978C17.4825 49.1978 17.4902 49.2033 17.5 49.2033H19.6875C19.6875 49.8073 20.1772 50.2971 20.7812 50.2971H44.7781C45.5573 54.0356 49.2197 56.4346 52.9583 55.6555C55.6512 55.0942 57.7553 52.99 58.3166 50.2971H61.25C61.854 50.2971 62.3438 49.8073 62.3438 49.2033V40.4402C62.3438 39.836 61.854 39.3464 61.25 39.3464ZM10.3906 53.5728C7.67238 53.5728 5.46875 51.3692 5.46875 48.651C5.46875 45.9327 7.67238 43.7291 10.3906 43.7291C13.1089 43.7291 15.3125 45.9327 15.3125 48.651C15.3095 51.368 13.1076 53.5698 10.3906 53.5728ZM19.6875 47.0103H17.5C17.4359 47.017 17.3724 47.0298 17.3108 47.0486C16.4311 43.2269 12.62 40.842 8.7984 41.7216C6.16328 42.3281 4.10143 44.3786 3.48031 47.0103H2.1875V38.8597C2.18928 37.3214 3.43602 36.0746 4.97437 36.0728H19.6875V47.0103ZM19.6875 33.8853H5.92812L6.74844 24.0416H19.6875V33.8853ZM19.6875 21.8541H4.375V21.3597C4.37678 19.8213 5.62352 18.5746 7.16187 18.5728H19.6875V21.8541ZM56.2673 49.1541C56.1267 51.6563 54.0545 53.6121 51.5484 53.6078H51.5473C49.2525 53.6028 47.2931 51.95 46.9011 49.6889C47.0928 49.354 47.0709 48.9378 46.8453 48.6247C46.9915 46.023 49.2192 44.0322 51.8211 44.1783C54.4228 44.3245 56.4136 46.5522 56.2673 49.1541Z" fill="#333333"/>
<path d="M60.1562 22.9478H44.8438C44.2397 22.9478 43.75 23.4376 43.75 24.0416C43.75 24.6456 44.2397 25.1353 44.8438 25.1353H60.1562C60.7603 25.1353 61.25 24.6456 61.25 24.0416C61.25 23.4376 60.7603 22.9478 60.1562 22.9478Z" fill="#333333"/>
<path d="M62.3438 34.9791H38.2812C37.6772 34.9791 37.1875 35.4688 37.1875 36.0728C37.1875 36.6769 37.6772 37.1666 38.2812 37.1666H62.3438C62.9478 37.1666 63.4375 36.6769 63.4375 36.0728C63.4375 35.4688 62.9478 34.9791 62.3438 34.9791Z" fill="#333333"/>
<path d="M60.1562 28.4166H48.125C47.521 28.4166 47.0312 28.9063 47.0312 29.5103C47.0312 30.1144 47.521 30.6041 48.125 30.6041H60.1562C60.7603 30.6041 61.25 30.1144 61.25 29.5103C61.25 28.9063 60.7603 28.4166 60.1562 28.4166Z" fill="#333333"/>
<path d="M64.5312 25.1353H66.7188C67.3228 25.1353 67.8125 24.6456 67.8125 24.0416C67.8125 23.4376 67.3228 22.9478 66.7188 22.9478H64.5312C63.9272 22.9478 63.4375 23.4376 63.4375 24.0416C63.4375 24.6456 63.9272 25.1353 64.5312 25.1353Z" fill="#333333"/>
<path d="M67.8125 34.9791H65.625C65.021 34.9791 64.5312 35.4688 64.5312 36.0728C64.5312 36.6769 65.021 37.1666 65.625 37.1666H67.8125C68.4165 37.1666 68.9062 36.6769 68.9062 36.0728C68.9062 35.4688 68.4165 34.9791 67.8125 34.9791Z" fill="#333333"/>
<path d="M68.9062 28.4166H64.5312C63.9272 28.4166 63.4375 28.9063 63.4375 29.5103C63.4375 30.1144 63.9272 30.6041 64.5312 30.6041H68.9062C69.5103 30.6041 70 30.1144 70 29.5103C70 28.9063 69.5103 28.4166 68.9062 28.4166Z" fill="#333333"/>
</svg>
