<svg width="14" height="16" viewBox="0 0 14 16" fill="none" xmlns="http://www.w3.org/2000/svg">
<path d="M4.70932 1.63C4.70932 1.41333 4.73132 1.28333 5.10265 1.28333H10.0793C10.946 1.28333 11.426 2.02333 11.7727 3.412L12.0527 4.52267H12.8993C13.0527 1.37067 13.186 0 13.186 0C13.186 0 11.0553 0.24 9.79265 0.24H3.42665L0.0173187 0.130667V1.044L1.16732 1.26133C1.97399 1.42133 2.16732 1.592 2.23399 2.332C2.23399 2.332 2.30732 4.512 2.30732 8.092C2.30732 11.682 2.24732 13.832 2.24732 13.832C2.24732 14.4807 1.98732 14.7207 1.18732 14.8807L0.0393187 15.1007V16L3.45932 15.89H9.15932C10.4493 15.89 13.4193 16 13.4193 16C13.4893 15.22 13.9193 11.68 13.9893 11.2907H13.1893L12.3333 13.2307C11.6633 14.7507 10.6827 14.8607 9.59332 14.8607H6.32265C5.23599 14.8607 4.71265 14.434 4.71265 13.494V8.53333C4.71265 8.53333 7.12599 8.53333 7.90598 8.59733C8.51398 8.64 8.88132 8.814 9.07932 9.66267L9.33932 10.7927H10.2793L10.2193 7.94067L10.3473 5.07067H9.41998L9.11998 6.33067C8.93132 7.16 8.79998 7.31067 7.95065 7.39733C6.83998 7.51067 4.74065 7.49067 4.74065 7.49067V1.63333H4.70732L4.70932 1.63Z" fill="#333333"/>
</svg>
