<svg width="18" height="12" viewBox="0 0 18 12" fill="none" xmlns="http://www.w3.org/2000/svg">
<path d="M0.574002 1.286L8.074 5.315C8.326 5.45 8.652 5.514 8.98 5.514C9.308 5.514 9.634 5.45 9.886 5.315L17.386 1.286C17.875 1.023 18.337 0 17.44 0H0.521002C-0.375998 0 0.0860016 1.023 0.574002 1.286ZM17.613 3.489L9.886 7.516C9.546 7.694 9.308 7.715 8.98 7.715C8.652 7.715 8.414 7.694 8.074 7.516C7.734 7.338 0.941002 3.777 0.386002 3.488C-0.00399834 3.284 1.61606e-06 3.523 1.61606e-06 3.707V11C1.61606e-06 11.42 0.566002 12 1 12H17C17.434 12 18 11.42 18 11V3.708C18 3.524 18.004 3.285 17.613 3.489Z" fill="#333333"/>
</svg>
