<svg width="70" height="70" viewBox="0 0 70 70" fill="none" xmlns="http://www.w3.org/2000/svg">
<path d="M45.7436 40.9404L35.8998 26.7217C35.7992 26.5762 35.6648 26.4572 35.5081 26.3751C35.3514 26.2929 35.1771 26.25 35.0002 26.25C34.8233 26.25 34.649 26.2929 34.4923 26.3751C34.3356 26.4572 34.2012 26.5762 34.1006 26.7217L24.2568 40.9404C24.1602 41.08 24.0974 41.2401 24.0734 41.4081C24.0495 41.5761 24.065 41.7474 24.1188 41.9084L26.9201 50.3125H26.2502C25.9601 50.3125 25.6819 50.4277 25.4768 50.6329C25.2717 50.838 25.1564 51.1162 25.1564 51.4063V54.6875C25.1564 54.9776 25.2717 55.2558 25.4768 55.4609C25.6819 55.666 25.9601 55.7813 26.2502 55.7813H27.3439V67.8125C27.3439 68.1026 27.4592 68.3808 27.6643 68.5859C27.8694 68.791 28.1476 68.9063 28.4377 68.9063H41.5627C41.8528 68.9063 42.131 68.791 42.3361 68.5859C42.5412 68.3808 42.6564 68.1026 42.6564 67.8125V55.7813H43.7502C44.0403 55.7813 44.3185 55.666 44.5236 55.4609C44.7287 55.2558 44.8439 54.9776 44.8439 54.6875V51.4063C44.8439 51.1162 44.7287 50.838 44.5236 50.6329C44.3185 50.4277 44.0403 50.3125 43.7502 50.3125H43.0803L45.8816 41.9084C45.9354 41.7474 45.9509 41.5761 45.9269 41.4081C45.903 41.2401 45.8402 41.08 45.7436 40.9404ZM35.0002 39.375C35.2165 39.375 35.428 39.4392 35.6078 39.5593C35.7877 39.6795 35.9279 39.8503 36.0107 40.0502C36.0935 40.2501 36.1151 40.47 36.0729 40.6821C36.0307 40.8943 35.9266 41.0892 35.7736 41.2422C35.6206 41.3951 35.4257 41.4993 35.2136 41.5415C35.0014 41.5837 34.7815 41.562 34.5816 41.4793C34.3818 41.3965 34.211 41.2563 34.0908 41.0764C33.9706 40.8966 33.9064 40.6851 33.9064 40.4688C33.9068 40.1788 34.0222 39.9008 34.2272 39.6958C34.4323 39.4908 34.7102 39.3754 35.0002 39.375ZM40.4689 66.7188H29.5314V55.7813H40.4689V66.7188ZM42.6564 53.5938H27.3439V52.5H42.6564V53.5938ZM40.7738 50.3125H29.2266L26.3664 41.7361L33.9064 30.8451V37.1875C33.907 37.2489 33.9125 37.3102 33.9229 37.3707C33.1903 37.6253 32.5717 38.1312 32.1766 38.7986C31.7815 39.4659 31.6356 40.2517 31.7647 41.0164C31.8939 41.7811 32.2897 42.4753 32.8819 42.976C33.4742 43.4766 34.2247 43.7513 35.0002 43.7513C35.7757 43.7513 36.5262 43.4766 37.1185 42.976C37.7107 42.4753 38.1065 41.7811 38.2357 41.0164C38.3648 40.2517 38.2189 39.4659 37.8238 38.7986C37.4287 38.1312 36.8101 37.6253 36.0775 37.3707C36.0879 37.3102 36.0934 37.2489 36.0939 37.1875V30.8451L43.634 41.7361L40.7738 50.3125Z" fill="#333333"/>
<path d="M67.8125 13.125H63.4375C63.1474 13.125 62.8692 13.2402 62.6641 13.4454C62.459 13.6505 62.3438 13.9287 62.3438 14.2188V15.3221C62.2984 15.3161 62.2528 15.3129 62.207 15.3125H38.2812V14.2188C38.2812 13.9287 38.166 13.6505 37.9609 13.4454C37.7558 13.2402 37.4776 13.125 37.1875 13.125H36.0938V7.65625H37.1875C37.4776 7.65625 37.7558 7.54102 37.9609 7.3359C38.166 7.13078 38.2812 6.85258 38.2812 6.5625V2.1875C38.2812 1.89742 38.166 1.61922 37.9609 1.4141C37.7558 1.20898 37.4776 1.09375 37.1875 1.09375H32.8125C32.5224 1.09375 32.2442 1.20898 32.0391 1.4141C31.834 1.61922 31.7188 1.89742 31.7188 2.1875V6.5625C31.7188 6.85258 31.834 7.13078 32.0391 7.3359C32.2442 7.54102 32.5224 7.65625 32.8125 7.65625H33.9062V13.125H32.8125C32.5224 13.125 32.2442 13.2402 32.0391 13.4454C31.834 13.6505 31.7188 13.9287 31.7188 14.2188V15.3125H7.65625V14.2188C7.65625 13.9287 7.54102 13.6505 7.3359 13.4454C7.13078 13.2402 6.85258 13.125 6.5625 13.125H2.1875C1.89742 13.125 1.61922 13.2402 1.4141 13.4454C1.20898 13.6505 1.09375 13.9287 1.09375 14.2188V18.5938C1.09375 18.8838 1.20898 19.162 1.4141 19.3671C1.61922 19.5723 1.89742 19.6875 2.1875 19.6875H6.5625C6.85258 19.6875 7.13078 19.5723 7.3359 19.3671C7.54102 19.162 7.65625 18.8838 7.65625 18.5938V17.5H25.7387C24.2951 18.455 23.0048 19.6236 21.9119 20.9658C19.1078 24.366 17.5 28.6836 17.5 32.8125H16.4062C16.1162 32.8125 15.838 32.9277 15.6329 33.1329C15.4277 33.338 15.3125 33.6162 15.3125 33.9062V38.2812C15.3125 38.5713 15.4277 38.8495 15.6329 39.0546C15.838 39.2598 16.1162 39.375 16.4062 39.375H20.7812C21.0713 39.375 21.3495 39.2598 21.5546 39.0546C21.7598 38.8495 21.875 38.5713 21.875 38.2812V33.9062C21.875 33.6162 21.7598 33.338 21.5546 33.1329C21.3495 32.9277 21.0713 32.8125 20.7812 32.8125H19.6875C19.6875 24.7023 25.9273 18.3053 31.7188 17.5711V18.5938C31.7188 18.8838 31.834 19.162 32.0391 19.3671C32.2442 19.5723 32.5224 19.6875 32.8125 19.6875H37.1875C37.4776 19.6875 37.7558 19.5723 37.9609 19.3671C38.166 19.162 38.2812 18.8838 38.2812 18.5938V17.567C41.2426 17.9184 44.085 19.693 46.3791 22.6529C48.6117 25.5309 50.0295 29.2578 50.2742 32.8125H49.2188C48.9287 32.8125 48.6505 32.9277 48.4454 33.1329C48.2402 33.338 48.125 33.6162 48.125 33.9062V38.2812C48.125 38.5713 48.2402 38.8495 48.4454 39.0546C48.6505 39.2598 48.9287 39.375 49.2188 39.375H53.5938C53.8838 39.375 54.162 39.2598 54.3671 39.0546C54.5723 38.8495 54.6875 38.5713 54.6875 38.2812V33.9062C54.6875 33.6162 54.5723 33.338 54.3671 33.1329C54.162 32.9277 53.8838 32.8125 53.5938 32.8125H52.4658C52.2266 28.7506 50.6693 24.6135 48.1086 21.3117C46.9824 19.8333 45.6252 18.5462 44.0891 17.5H62.207C62.2528 17.4996 62.2984 17.4964 62.3438 17.4904V18.5938C62.3438 18.8838 62.459 19.162 62.6641 19.3671C62.8692 19.5723 63.1474 19.6875 63.4375 19.6875H67.8125C68.1026 19.6875 68.3808 19.5723 68.5859 19.3671C68.791 19.162 68.9062 18.8838 68.9062 18.5938V14.2188C68.9062 13.9287 68.791 13.6505 68.5859 13.4454C68.3808 13.2402 68.1026 13.125 67.8125 13.125ZM5.46875 17.5H3.28125V15.3125H5.46875V17.5ZM19.6875 37.1875H17.5V35H19.6875V37.1875ZM33.9062 3.28125H36.0938V5.46875H33.9062V3.28125ZM36.0938 17.5H33.9062V15.3125H36.0938V17.5ZM50.3125 35H52.5V37.1875H50.3125V35ZM66.7188 17.5H64.5312V15.3125H66.7188V17.5Z" fill="#333333"/>
</svg>
