<svg width="70" height="70" viewBox="0 0 70 70" fill="none" xmlns="http://www.w3.org/2000/svg">
<path d="M50.3125 2.1875H41.5625V1.09375C41.5625 0.489727 41.0728 0 40.4688 0C39.8647 0 39.375 0.489727 39.375 1.09375V2.1875H30.625V1.09375C30.625 0.489727 30.1353 0 29.5312 0C28.9272 0 28.4375 0.489727 28.4375 1.09375V2.1875H19.6875V1.09375C19.6875 0.489727 19.1978 0 18.5938 0C17.9897 0 17.5 0.489727 17.5 1.09375V2.1875H8.75C8.14598 2.1875 7.65625 2.67723 7.65625 3.28125V68.9062C7.65625 69.5103 8.14598 70 8.75 70H50.3125C50.9165 70 51.4062 69.5103 51.4062 68.9062V3.28125C51.4062 2.67723 50.9165 2.1875 50.3125 2.1875ZM49.2188 67.8125H9.84375V4.375H17.5V7.65625C17.5 8.26027 17.9897 8.75 18.5938 8.75C19.1978 8.75 19.6875 8.26027 19.6875 7.65625V4.375H28.4375V7.65625C28.4375 8.26027 28.9272 8.75 29.5312 8.75C30.1353 8.75 30.625 8.26027 30.625 7.65625V4.375H39.375V7.65625C39.375 8.26027 39.8647 8.75 40.4688 8.75C41.0728 8.75 41.5625 8.26027 41.5625 7.65625V4.375H49.2188V67.8125Z" fill="#333333"/>
<path d="M25.1562 12.0312H14.2188C13.6147 12.0312 13.125 12.521 13.125 13.125V24.0625C13.125 24.6665 13.6147 25.1562 14.2188 25.1562H25.1562C25.7603 25.1562 26.25 24.6665 26.25 24.0625V13.125C26.25 12.521 25.7603 12.0312 25.1562 12.0312ZM24.0625 22.9688H15.3125V14.2188H24.0625V22.9688Z" fill="#333333"/>
<path d="M25.1562 27.3438H14.2188C13.6147 27.3438 13.125 27.8335 13.125 28.4375V39.375C13.125 39.979 13.6147 40.4688 14.2188 40.4688H25.1562C25.7603 40.4688 26.25 39.979 26.25 39.375V28.4375C26.25 27.8335 25.7603 27.3438 25.1562 27.3438ZM24.0625 38.2812H15.3125V29.5312H24.0625V38.2812Z" fill="#333333"/>
<path d="M25.1562 42.6562H14.2188C13.6147 42.6562 13.125 43.146 13.125 43.75V54.6875C13.125 55.2915 13.6147 55.7812 14.2188 55.7812H25.1562C25.7603 55.7812 26.25 55.2915 26.25 54.6875V43.75C26.25 43.146 25.7603 42.6562 25.1562 42.6562ZM24.0625 53.5938H15.3125V44.8438H24.0625V53.5938Z" fill="#333333"/>
<path d="M29.5312 14.2188C29.5312 14.8228 30.021 15.3125 30.625 15.3125H43.75C44.354 15.3125 44.8438 14.8228 44.8438 14.2188C44.8438 13.6147 44.354 13.125 43.75 13.125H30.625C30.021 13.125 29.5312 13.6147 29.5312 14.2188Z" fill="#333333"/>
<path d="M43.75 21.875H30.625C30.021 21.875 29.5312 22.3647 29.5312 22.9688C29.5312 23.5728 30.021 24.0625 30.625 24.0625H43.75C44.354 24.0625 44.8438 23.5728 44.8438 22.9688C44.8438 22.3647 44.354 21.875 43.75 21.875Z" fill="#333333"/>
<path d="M30.625 19.6875H36.0938C36.6978 19.6875 37.1875 19.1978 37.1875 18.5938C37.1875 17.9897 36.6978 17.5 36.0938 17.5H30.625C30.021 17.5 29.5312 17.9897 29.5312 18.5938C29.5312 19.1978 30.021 19.6875 30.625 19.6875Z" fill="#333333"/>
<path d="M41.5625 19.6875C42.1665 19.6875 42.6562 19.1978 42.6562 18.5938C42.6562 17.9897 42.1665 17.5 41.5625 17.5H39.375C38.771 17.5 38.2812 17.9897 38.2812 18.5938C38.2812 19.1978 38.771 19.6875 39.375 19.6875H41.5625Z" fill="#333333"/>
<path d="M43.75 28.4375H30.625C30.021 28.4375 29.5312 28.9272 29.5312 29.5312C29.5312 30.1353 30.021 30.625 30.625 30.625H43.75C44.354 30.625 44.8438 30.1353 44.8438 29.5312C44.8438 28.9272 44.354 28.4375 43.75 28.4375Z" fill="#333333"/>
<path d="M43.75 37.1875H30.625C30.021 37.1875 29.5312 37.6772 29.5312 38.2812C29.5312 38.8853 30.021 39.375 30.625 39.375H43.75C44.354 39.375 44.8438 38.8853 44.8438 38.2812C44.8438 37.6772 44.354 37.1875 43.75 37.1875Z" fill="#333333"/>
<path d="M30.625 35H36.0938C36.6978 35 37.1875 34.5103 37.1875 33.9062C37.1875 33.3022 36.6978 32.8125 36.0938 32.8125H30.625C30.021 32.8125 29.5312 33.3022 29.5312 33.9062C29.5312 34.5103 30.021 35 30.625 35Z" fill="#333333"/>
<path d="M41.5625 35C42.1665 35 42.6562 34.5103 42.6562 33.9062C42.6562 33.3022 42.1665 32.8125 41.5625 32.8125H39.375C38.771 32.8125 38.2812 33.3022 38.2812 33.9062C38.2812 34.5103 38.771 35 39.375 35H41.5625Z" fill="#333333"/>
<path d="M43.75 43.75H30.625C30.021 43.75 29.5312 44.2397 29.5312 44.8438C29.5312 45.4478 30.021 45.9375 30.625 45.9375H43.75C44.354 45.9375 44.8438 45.4478 44.8438 44.8438C44.8438 44.2397 44.354 43.75 43.75 43.75Z" fill="#333333"/>
<path d="M43.75 52.5H30.625C30.021 52.5 29.5312 52.9897 29.5312 53.5938C29.5312 54.1978 30.021 54.6875 30.625 54.6875H43.75C44.354 54.6875 44.8438 54.1978 44.8438 53.5938C44.8438 52.9897 44.354 52.5 43.75 52.5Z" fill="#333333"/>
<path d="M30.625 50.3125H36.0938C36.6978 50.3125 37.1875 49.8228 37.1875 49.2188C37.1875 48.6147 36.6978 48.125 36.0938 48.125H30.625C30.021 48.125 29.5312 48.6147 29.5312 49.2188C29.5312 49.8228 30.021 50.3125 30.625 50.3125Z" fill="#333333"/>
<path d="M41.5625 50.3125C42.1665 50.3125 42.6562 49.8228 42.6562 49.2188C42.6562 48.6147 42.1665 48.125 41.5625 48.125H39.375C38.771 48.125 38.2812 48.6147 38.2812 49.2188C38.2812 49.8228 38.771 50.3125 39.375 50.3125H41.5625Z" fill="#333333"/>
<path d="M58.5156 14.2188C56.4014 14.2188 54.6875 15.9327 54.6875 18.0469V50.3125C54.6924 50.3445 54.699 50.3764 54.7072 50.4077C54.7055 50.4357 54.7055 50.4638 54.7072 50.4919L55.8009 57.0544C55.8883 57.5802 56.3421 57.9664 56.875 57.9688H60.1562C60.691 57.9685 61.1471 57.5818 61.2347 57.0544L62.3284 50.4919C62.3301 50.4638 62.3301 50.4357 62.3284 50.4077C62.3351 50.3762 62.3403 50.3445 62.3438 50.3125V18.0469C62.3438 15.9327 60.6298 14.2188 58.5156 14.2188ZM59.2298 55.7812H57.8014L57.073 51.4062H59.9583L59.2298 55.7812ZM60.1562 49.2188H56.875V22.9688H60.1562V49.2188ZM60.1562 20.7812H56.875V18.0469C56.875 17.1408 57.6096 16.4062 58.5156 16.4062C59.4217 16.4062 60.1562 17.1408 60.1562 18.0469V20.7812Z" fill="#333333"/>
</svg>
