<svg width="20" height="20" viewBox="0 0 20 20" fill="none" xmlns="http://www.w3.org/2000/svg">
<path d="M15.8337 7.49996C15.8337 6.73392 15.6828 5.97537 15.3896 5.26764C15.0965 4.55991 14.6668 3.91684 14.1251 3.37517C13.5834 2.83349 12.9404 2.40381 12.2326 2.11066C11.5249 1.81751 10.7664 1.66663 10.0003 1.66663C9.23428 1.66663 8.47574 1.81751 7.76801 2.11066C7.06027 2.40381 6.41721 2.83349 5.87554 3.37517C5.33386 3.91684 4.90418 4.55991 4.61103 5.26764C4.31788 5.97537 4.16699 6.73392 4.16699 7.49996C4.16699 8.65579 4.50866 9.73079 5.08783 10.6375H5.08116C7.04783 13.7166 10.0003 18.3333 10.0003 18.3333L14.9195 10.6375H14.9137C15.514 9.7011 15.8333 8.61224 15.8337 7.49996ZM10.0003 9.99996C9.33729 9.99996 8.7014 9.73657 8.23256 9.26773C7.76372 8.79889 7.50033 8.163 7.50033 7.49996C7.50033 6.83692 7.76372 6.20103 8.23256 5.73219C8.7014 5.26335 9.33729 4.99996 10.0003 4.99996C10.6634 4.99996 11.2993 5.26335 11.7681 5.73219C12.2369 6.20103 12.5003 6.83692 12.5003 7.49996C12.5003 8.163 12.2369 8.79889 11.7681 9.26773C11.2993 9.73657 10.6634 9.99996 10.0003 9.99996Z" fill="#333333"/>
</svg>
