<svg width="19" height="19" viewBox="0 0 19 19" fill="none" xmlns="http://www.w3.org/2000/svg">
<path d="M19 17L13.846 11.846C14.7988 10.3979 15.1805 8.64774 14.917 6.93442C14.6536 5.22111 13.7638 3.66648 12.4199 2.57154C11.076 1.47659 9.37369 0.919227 7.64247 1.00735C5.91125 1.09547 4.27431 1.82281 3.04857 3.04855C1.82283 4.27429 1.09549 5.91123 1.00737 7.64245C0.91925 9.37366 1.47662 11.076 2.57156 12.4199C3.6665 13.7637 5.22113 14.6535 6.93445 14.917C8.64777 15.1804 10.3979 14.7988 11.846 13.846L17 19L19 17ZM3 7.99998C3 5.24298 5.243 2.99998 8 2.99998C10.757 2.99998 13 5.24298 13 7.99998C13 10.757 10.757 13 8 13C5.243 13 3 10.757 3 7.99998Z" fill="white"/>
</svg>
