<svg width="20" height="16" viewBox="0 0 20 16" fill="none" xmlns="http://www.w3.org/2000/svg">
<path d="M17.256 10.253C17.16 9.586 16.645 9.066 15.982 8.911C13.405 8.307 12.759 6.823 12.65 5.177C12.193 5.092 11.38 5 10 5C8.62 5 7.807 5.092 7.35 5.177C7.241 6.823 6.595 8.307 4.018 8.911C3.355 9.067 2.84 9.586 2.744 10.253L2.247 13.695C2.072 14.907 2.962 16 4.2 16H15.8C17.037 16 17.928 14.907 17.753 13.695L17.256 10.253ZM10 13.492C8.605 13.492 7.474 12.372 7.474 10.992C7.474 9.612 8.605 8.492 10 8.492C11.395 8.492 12.526 9.612 12.526 10.992C12.526 12.372 11.394 13.492 10 13.492ZM19.95 4C19.926 2.5 16.108 0.001 10 0C3.891 0.001 0.0729981 2.5 0.0499981 4C0.0269981 5.5 0.0709982 7.452 2.585 7.127C5.526 6.746 5.345 5.719 5.345 4.251C5.345 3.227 7.737 2.98 10 2.98C12.263 2.98 14.654 3.227 14.655 4.251C14.655 5.719 14.474 6.746 17.415 7.127C19.928 7.452 19.973 5.5 19.95 4Z" fill="#333333"/>
</svg>
