<svg width="24" height="16" viewBox="0 0 24 16" fill="none" xmlns="http://www.w3.org/2000/svg">
<path d="M22.8956 2.52385C22.7662 2.04288 22.5127 1.60435 22.1605 1.25215C21.8083 0.899951 21.3697 0.646434 20.8888 0.516973C19.1175 0.0375978 12 0.0375977 12 0.0375977C12 0.0375977 4.8825 0.0375978 3.11125 0.516973C2.63029 0.646434 2.19176 0.899951 1.83956 1.25215C1.48736 1.60435 1.23384 2.04288 1.10438 2.52385C0.773648 4.33025 0.613153 6.1637 0.625005 8.0001C0.613153 9.83649 0.773648 11.6699 1.10438 13.4763C1.23384 13.9573 1.48736 14.3958 1.83956 14.748C2.19176 15.1002 2.63029 15.3538 3.11125 15.4832C4.8825 15.9626 12 15.9626 12 15.9626C12 15.9626 19.1175 15.9626 20.8888 15.4832C21.3697 15.3538 21.8083 15.1002 22.1605 14.748C22.5127 14.3958 22.7662 13.9573 22.8956 13.4763C23.2264 11.6699 23.3869 9.83649 23.375 8.0001C23.3869 6.1637 23.2264 4.33025 22.8956 2.52385ZM9.72501 11.4126V4.5876L15.6319 8.0001L9.72501 11.4126Z" fill="#333333"/>
</svg>
